<?xml version="1.0" encoding="utf-8"?>
<!-- Generator: Adobe Illustrator 24.0.1, SVG Export Plug-In . SVG Version: 6.00 Build 0)  -->
<svg version="1.1" id="Layer_1" xmlns="http://www.w3.org/2000/svg" xmlns:xlink="http://www.w3.org/1999/xlink" x="0px" y="0px"
	 viewBox="0 0 1366 400" style="enable-background:new 0 0 1366 400;" xml:space="preserve">
<style type="text/css">
	.st0{fill:#0AB900;stroke:#1B1464;stroke-miterlimit:10;}
	.st1{fill:#FF802E;stroke:#42210B;stroke-miterlimit:10;}
	.st2{fill:#0AB900;stroke:#42210B;stroke-miterlimit:10;}
</style>
<g>
	<path class="st0" d="M306.6,32.3H97.3c-7.1,0-12.9,6.1-12.9,13.6v299.6c0,7.5,5.8,13.6,12.9,13.6h209.3c7.1,0,12.9-6.1,12.9-13.6
		V45.9C319.5,38.4,313.8,32.3,306.6,32.3z M202,355.1c-5.1,0-9.2-4.3-9.2-9.7c0-5.4,4.1-9.7,9.2-9.7s9.2,4.3,9.2,9.7
		C211.2,350.8,207.1,355.1,202,355.1z M293.7,331.9H110.2V59.4H133v33.9l10-8.9l10,8.9V59.4h140.6V331.9L293.7,331.9z M271,121.1
		h-69v-10.6h69L271,121.1L271,121.1z M271,161.6h-69V151h69L271,161.6L271,161.6z M133,191.9h138v10.7H133V191.9z M133,232.5h138
		v10.6H133V232.5z M133,273.4h138V284H133V273.4z M152.3,107.3L133,164.8h5.9h5.9l3.6-11.7h20.8l3.7,11.7h6h6.1l-19.4-57.5H159
		C159,107.3,152.3,107.3,152.3,107.3z M166.1,143.2h-14.5l7.3-23.1L166.1,143.2z"/>
</g>
<g>
	<g>
		<path class="st1" d="M419.7,197.5h-42.4V239h47.4v12.4h-61.6V136.5h59.1v12.4h-44.9v36.4h42.4V197.5z"/>
		<path class="st1" d="M441.9,251.4c0.4-5.7,0.6-13.9,0.6-21.3v-99.7h14.2v51.8h0.3c5-9.3,14.1-15.1,26.8-15.1
			c19.5,0,33.2,17,33.1,42c0,29.6-17.8,44.2-35.3,44.2c-11.3,0-20.4-4.7-26.3-15.4h-0.4l-0.7,13.5H441.9z M456.7,218.3
			c0,1.8,0.2,3.7,0.6,5.4c2.7,10.4,11.1,17.5,21.4,17.5c15,0,23.8-12.8,23.8-31.7c0-16.6-8.2-30.8-23.4-30.8
			c-9.7,0-18.7,7.1-21.6,18.4c-0.4,1.8-0.8,3.9-0.8,6.2V218.3z"/>
		<path class="st1" d="M605.9,209.4c0,30.5-20.2,43.9-39,43.9c-21.3,0-37.7-16.3-37.7-42.5c0-27.6,17.3-43.7,39-43.7
			C590.7,167.1,605.9,184.3,605.9,209.4z M543.6,210.3c0,18.1,9.9,31.7,23.8,31.7c13.7,0,23.9-13.4,23.9-32.1
			c0-13.9-6.7-31.6-23.7-31.6C550.9,178.3,543.6,194.7,543.6,210.3z"/>
		<path class="st1" d="M694.9,209.4c0,30.5-20.2,43.9-39,43.9c-21.3,0-37.7-16.3-37.7-42.5c0-27.6,17.3-43.7,39-43.7
			C679.7,167.1,694.9,184.3,694.9,209.4z M632.7,210.3c0,18.1,9.9,31.7,23.8,31.7c13.7,0,23.9-13.4,23.9-32.1
			c0-13.9-6.7-31.6-23.7-31.6C640,178.3,632.7,194.7,632.7,210.3z"/>
		<path class="st1" d="M727.1,206.7h0.3c1.9-2.9,4.6-6.5,6.8-9.4l23.1-28.4h17.1l-30.3,33.9l34.5,48.5h-17.4l-27-39.6l-7.3,8.6v31
			H713v-121h14.2V206.7z"/>
		<path class="st1" d="M823.9,138.1c7.2-1.5,17.5-2.5,27.2-2.5c15,0,24.9,3,31.7,9.5c5.4,5,8.6,12.9,8.6,21.8
			c0,15.1-9.2,25.1-20.6,29.3v0.4c8.3,3.1,13.4,11.4,16,23.3c3.6,16.1,6.2,27,8.4,31.5h-14.6c-1.7-3.3-4.2-13.1-7.2-27.5
			c-3.2-15.7-9.2-21.8-21.9-22.3H838v49.8h-14.1V138.1z M838,190.4h14.4c15.1,0,24.7-8.6,24.7-21.8c0-14.9-10.2-21.4-25.1-21.4
			c-6.8,0-11.6,0.7-14,1.3V190.4z"/>
		<path class="st1" d="M918.7,212.9c0.3,20.3,12.5,28.6,26.9,28.6c10.2,0,16.5-1.9,21.7-4.2l2.5,10.6c-5,2.4-13.7,5.3-26.2,5.3
			c-24.1,0-38.6-16.9-38.6-41.6c0-25,14-44.5,36.9-44.5c25.6,0,32.3,23.6,32.3,38.8c0,3.1-0.2,5.4-0.5,7H918.7z M960.5,202.1
			c0.1-9.4-3.7-24.3-19.7-24.3c-14.6,0-20.8,13.8-21.9,24.3H960.5z"/>
		<path class="st1" d="M1035.5,251.4l-1.3-10.4h-0.4c-4.3,6.4-12.8,12.3-24,12.3c-15.9,0-24-11.8-24-23.7c0-20,16.8-30.9,47.2-30.7
			v-1.8c0-6.7-1.8-19.1-17.9-19c-7.3,0-14.9,2.3-20.4,6.1l-3.2-10c6.5-4.4,16-7.2,25.9-7.2c24,0,29.8,17.2,29.8,33.7v30.8
			c0,7,0.3,14.1,1.2,19.7H1035.5z M1033.3,209.3c-15.4-0.3-33.1,2.6-33.1,18.5c0,9.8,6.2,14.4,13.3,14.4c10.3,0,16.8-6.8,19.1-13.8
			c0.5-1.6,0.7-3.3,0.7-4.7V209.3z"/>
		<path class="st1" d="M1137.9,130.4v99.7c0,7.3,0.3,15.6,0.6,21.3h-12.7l-0.7-14.3h-0.4c-4.4,9.2-13.8,16.1-26.6,16.1
			c-19,0-33.7-16.9-33.7-41.9c-0.1-27.6,16.2-44.3,35.3-44.3c12,0,20.2,5.9,23.7,12.5h0.3v-49.2H1137.9z M1123.8,202.5
			c0-2-0.2-4.4-0.6-6.4c-2.2-9.5-9.9-17.2-20.7-17.2c-14.8,0-23.6,13.6-23.6,31.7c0,16.7,7.9,30.6,23.3,30.6c9.6,0,18.2-6.8,20.9-18
			c0.5-2,0.7-4.1,0.7-6.4V202.5z"/>
		<path class="st1" d="M1169.7,212.9c0.3,20.3,12.5,28.6,26.9,28.6c10.2,0,16.5-1.9,21.7-4.2l2.5,10.6c-5,2.4-13.7,5.3-26.2,5.3
			c-24.1,0-38.6-16.9-38.6-41.6c0-25,14-44.5,36.9-44.5c25.6,0,32.3,23.6,32.3,38.8c0,3.1-0.2,5.4-0.5,7H1169.7z M1211.5,202.1
			c0.1-9.4-3.7-24.3-19.7-24.3c-14.6,0-20.8,13.8-21.9,24.3H1211.5z"/>
		<path class="st1" d="M1243,194.6c0-9.7-0.2-18-0.6-25.7h12.5l0.5,16.2h0.5c3.7-11.1,12.3-18,21.8-18c1.5,0,2.7,0.1,4,0.4v14.1
			c-1.5-0.3-2.9-0.4-4.9-0.4c-10.1,0-17.2,8-19.1,19.2c-0.4,2.1-0.6,4.6-0.6,7v44H1243V194.6z"/>
	</g>
</g>
<rect x="375.7" y="279.2" class="st2" width="875" height="12.7"/>
</svg>
